<svg viewBox="0 0 15 14" fill="black" xmlns="http://www.w3.org/2000/svg">
<path d="M7.46721 0.5C5.8507 0.5 4.59419 0.5 3.61605 0.600004C2.62674 0.702007 1.84326 0.913348 1.21814 1.3907C0.576279 1.88138 0.276279 2.5194 0.134651 3.3241C-3.11885e-08 4.09212 0 5.06949 0 6.2882V6.4102C0 7.59824 3.11885e-08 8.42027 0.139535 9.03296C0.214884 9.36297 0.333488 9.64965 0.519767 9.91499C0.703953 10.1763 0.938372 10.3963 1.21814 10.6097C1.65837 10.9464 2.17744 11.1497 2.7907 11.2764V13.0004C2.79078 13.088 2.81494 13.1741 2.86077 13.2499C2.9066 13.3258 2.97249 13.3889 3.05183 13.4327C3.13117 13.4766 3.22119 13.4998 3.31286 13.5C3.40454 13.5002 3.49465 13.4773 3.57419 13.4338C3.98302 13.2104 4.34512 12.9671 4.67651 12.7378L4.8886 12.5904C5.12459 12.4216 5.36562 12.2593 5.6114 12.1037C6.20023 11.7384 6.76256 11.5004 7.5 11.5004H7.53279C9.1493 11.5004 10.4058 11.5004 11.384 11.4004C12.3733 11.2984 13.1567 11.087 13.7819 10.6097C14.0609 10.3963 14.296 10.1763 14.4795 9.91499C14.6665 9.64965 14.7851 9.36297 14.8605 9.03296C15 8.42027 15 7.59824 15 6.4102V6.2882C15 5.06949 15 4.09212 14.8653 3.32476C14.7237 2.5194 14.4237 1.88138 13.7819 1.3907C13.1567 0.912681 12.3733 0.702007 11.384 0.60067C10.4058 0.5 9.1493 0.5 7.53279 0.5H7.46721Z"/>
</svg>
