<svg viewBox="0 0 10 10" fill="rgba(255,123,0,0.5)" xmlns="http://www.w3.org/2000/svg">
<path d="M5 4.775C4.66848 4.775 4.35054 4.65647 4.11612 4.4455C3.8817 4.23452 3.75 3.94837 3.75 3.65C3.75 3.35163 3.8817 3.06548 4.11612 2.8545C4.35054 2.64353 4.66848 2.525 5 2.525C5.33152 2.525 5.64946 2.64353 5.88388 2.8545C6.1183 3.06548 6.25 3.35163 6.25 3.65C6.25 3.79774 6.21767 3.94403 6.15485 4.08052C6.09203 4.21701 5.99996 4.34103 5.88388 4.4455C5.76781 4.54996 5.63001 4.63283 5.47835 4.68936C5.3267 4.7459 5.16415 4.775 5 4.775ZM5 0.5C4.07174 0.5 3.1815 0.831874 2.52513 1.42261C1.86875 2.01335 1.5 2.81457 1.5 3.65C1.5 6.0125 5 9.5 5 9.5C5 9.5 8.5 6.0125 8.5 3.65C8.5 2.81457 8.13125 2.01335 7.47487 1.42261C6.8185 0.831874 5.92826 0.5 5 0.5Z" />
</svg>
