<svg viewBox="0 0 24 10" fill="none" stroke="#4B9913" xmlns="http://www.w3.org/2000/svg">
<path d="M4.02677 9C10.3125 9 10.3125 1.57143 4.02677 1H17.7411C24.0268 1.57143 24.0268 9 17.7411 9H3.45535M10.8839 9C17.1696 9 17.1696 1.57143 10.8839 1" stroke="#4B9913" stroke-width="2" stroke-linecap="round"/>
<path d="M3.45534 9C3.02875 8.99995 2.61069 8.88052 2.24845 8.65522C1.8862 8.42992 1.59424 8.10775 1.40558 7.72514C1.21692 7.34254 1.1391 6.91477 1.18092 6.49024C1.22273 6.0657 1.38252 5.66134 1.6422 5.32289C1.90188 4.98445 2.25109 4.72543 2.65033 4.57513C3.04956 4.42484 3.48289 4.38927 3.9013 4.47244C4.3197 4.55562 4.70648 4.75423 5.01787 5.0458C5.32927 5.33736 5.55286 5.71026 5.66334 6.12229" stroke-width="2" stroke-linecap="round"/>
</svg>
