<svg width="32" height="37" viewBox="0 0 32 37" fill="#FFB964" xmlns="http://www.w3.org/2000/svg">
<path d="M24.9275 26.7295C24.5245 25.4895 23.362 24.575 21.9825 24.575H20.4325V19.925C20.4325 19.5139 20.2692 19.1197 19.9785 18.829C19.6878 18.5383 19.2936 18.375 18.8825 18.375H9.5825V15.275H12.6825C13.0936 15.275 13.4878 15.1117 13.7785 14.821C14.0692 14.5303 14.2325 14.1361 14.2325 13.725V10.625H17.3325C18.1547 10.625 18.9432 10.2984 19.5245 9.71703C20.1059 9.13567 20.4325 8.34717 20.4325 7.525V6.8895C22.287 7.63717 23.9328 8.82308 25.2289 10.3457C26.5249 11.8684 27.4328 13.6824 27.8746 15.6326C28.3164 17.5828 28.2791 19.6109 27.7659 21.5435C27.2526 23.4761 26.2787 25.2555 24.9275 26.7295ZM14.2325 30.6665C8.11 29.907 3.3825 24.699 3.3825 18.375C3.3825 17.414 3.5065 16.484 3.708 15.6005L11.1325 23.025V24.575C11.1325 25.3972 11.4591 26.1857 12.0405 26.767C12.6218 27.3484 13.4103 27.675 14.2325 27.675M15.7825 2.875C13.747 2.875 11.7315 3.27592 9.85091 4.05487C7.97036 4.83382 6.26165 5.97554 4.82235 7.41484C1.91553 10.3217 0.282501 14.2641 0.282501 18.375C0.282501 22.4859 1.91553 26.4283 4.82235 29.3352C6.26165 30.7745 7.97036 31.9162 9.85091 32.6951C11.7315 33.4741 13.747 33.875 15.7825 33.875C19.8934 33.875 23.8358 32.242 26.7427 29.3352C29.6495 26.4283 31.2825 22.4859 31.2825 18.375C31.2825 16.3395 30.8816 14.324 30.1026 12.4434C29.3237 10.5629 28.182 8.85415 26.7427 7.41484C25.3033 5.97554 23.5946 4.83382 21.7141 4.05487C19.8335 3.27592 17.818 2.875 15.7825 2.875Z"/>
</svg>
