<svg width="29" height="37" viewBox="0 0 29 37" fill="#FFB964" xmlns="http://www.w3.org/2000/svg">
<path d="M14.2834 3.62775C14.944 3.28654 15.6415 3.02231 16.3624 2.84025C16.4254 4.25775 16.8664 5.6595 17.4649 6.99825C18.3154 8.89087 19.5649 10.8229 20.7829 12.6945L20.9246 12.9098C22.119 14.7394 23.2871 16.527 24.1744 18.3225C25.0931 20.1836 25.6575 21.9424 25.6575 23.625C25.6575 26.6516 24.7519 29.2609 23.0535 31.101C21.3735 32.9254 18.7905 34.125 15.1575 34.125C11.4904 34.125 8.94152 33.0645 7.16177 31.4344C5.3584 29.7859 4.21652 27.4365 3.59702 24.6514C3.01427 22.0316 3.52877 19.6822 4.2139 17.9576C4.3259 17.6776 4.43965 17.4151 4.55515 17.1701L4.88327 17.829C5.12037 18.3047 5.44897 18.7291 5.85026 19.0776C6.25155 19.4262 6.71764 19.6923 7.22187 19.8605C7.72609 20.0287 8.25855 20.0959 8.78875 20.0581C9.31896 20.0203 9.83651 19.8783 10.3118 19.6403C12.5325 18.5299 13.1468 15.8077 12.207 13.7707C11.2305 11.6524 10.4693 9.0195 11.1491 6.97725C11.661 5.44425 12.8764 4.35225 14.2808 3.62775M3.6259 13.6211L3.62065 13.6316L3.60752 13.6474L3.56552 13.6999L3.43165 13.8862C3.31615 14.0455 3.1674 14.2695 2.9854 14.5583C2.5119 15.3321 2.10614 16.1453 1.77265 16.989C0.958897 19.0365 0.302647 21.9371 1.03502 25.2236C1.73065 28.3474 3.0694 31.2454 5.3899 33.3716C7.7314 35.5136 10.947 36.75 15.1575 36.75C19.4048 36.75 22.728 35.3246 24.9829 32.8834C27.222 30.4579 28.2825 27.1609 28.2825 23.625C28.2825 21.3701 27.5344 19.1914 26.5264 17.157C25.5683 15.2197 24.3214 13.314 23.1533 11.5211L22.9826 11.2586C21.741 9.3555 20.6096 7.59675 19.8589 5.922C19.1081 4.24725 18.8168 2.8245 19.0661 1.56975C19.1042 1.37941 19.0995 1.183 19.0525 0.994666C19.0055 0.806337 18.9173 0.630777 18.7943 0.480636C18.6713 0.330495 18.5165 0.20951 18.3411 0.126398C18.1657 0.0432866 17.974 0.000117213 17.7799 0C16.6721 0 14.8268 0.3885 13.0759 1.29413C11.3093 2.21025 9.46127 3.74325 8.66065 6.14775C7.6369 9.219 8.81552 12.684 9.82352 14.8706C10.2724 15.8419 9.88127 16.9181 9.1384 17.2909C8.97163 17.3747 8.78995 17.4248 8.60378 17.4382C8.41762 17.4516 8.23064 17.4281 8.05357 17.3691C7.8765 17.3101 7.71283 17.2167 7.57195 17.0942C7.43108 16.9718 7.31577 16.8227 7.23265 16.6556L5.82827 13.8495C5.72955 13.6521 5.58262 13.4827 5.40109 13.3572C5.21957 13.2316 5.0093 13.1538 4.78974 13.131C4.57019 13.1083 4.34844 13.1412 4.14501 13.2269C3.94157 13.3126 3.76303 13.4482 3.6259 13.6211Z" />
</svg>
