<svg width="38" height="37" viewBox="0 0 38 37" fill="#FFB964" xmlns="http://www.w3.org/2000/svg">
<path d="M19.185 29.9646L19 30.1444L18.7965 29.9646C10.009 22.2136 4.2 17.0883 4.2 11.891C4.2 8.29428 6.975 5.59673 10.675 5.59673C13.524 5.59673 16.299 7.3951 17.2795 9.84087H20.7205C21.701 7.3951 24.476 5.59673 27.325 5.59673C31.025 5.59673 33.8 8.29428 33.8 11.891C33.8 17.0883 27.991 22.2136 19.185 29.9646ZM27.325 2C24.106 2 21.0165 3.45668 19 5.7406C16.9835 3.45668 13.894 2 10.675 2C4.977 2 0.5 6.33406 0.5 11.891C0.5 18.6708 6.79 24.2278 16.3175 32.6262L19 35L21.6825 32.6262C31.21 24.2278 37.5 18.6708 37.5 11.891C37.5 6.33406 33.023 2 27.325 2Z" />
</svg>
