<svg width="54" height="54" viewBox="0 0 54 54" fill="#FFB964" xmlns="http://www.w3.org/2000/svg">
<path fill-rule="evenodd" clip-rule="evenodd" d="M20.25 11.25C20.25 10.0565 20.7241 8.91193 21.568 8.06802C22.4119 7.22411 23.5565 6.75 24.75 6.75H29.25C30.4435 6.75 31.5881 7.22411 32.432 8.06802C33.2759 8.91193 33.75 10.0565 33.75 11.25V20.25H42.75C43.9435 20.25 45.0881 20.7241 45.932 21.568C46.7759 22.4119 47.25 23.5565 47.25 24.75V29.25C47.25 30.4435 46.7759 31.5881 45.932 32.432C45.0881 33.2759 43.9435 33.75 42.75 33.75H33.75V42.75C33.75 43.9435 33.2759 45.0881 32.432 45.932C31.5881 46.7759 30.4435 47.25 29.25 47.25H24.75C23.5565 47.25 22.4119 46.7759 21.568 45.932C20.7241 45.0881 20.25 43.9435 20.25 42.75V33.75H11.25C10.0565 33.75 8.91193 33.2759 8.06802 32.432C7.22411 31.5881 6.75 30.4435 6.75 29.25V24.75C6.75 23.5565 7.22411 22.4119 8.06802 21.568C8.91193 20.7241 10.0565 20.25 11.25 20.25H20.25V11.25Z" />
</svg>
