<svg width="36" height="37" viewBox="0 0 36 37" fill="#FFB964" xmlns="http://www.w3.org/2000/svg">
<path d="M2.5 30.125L0.75 30.125L2.5 30.125ZM10.25 22.375L10.25 20.625L10.25 22.375ZM25.75 22.375V20.625V22.375ZM4.25 30.125C4.25 28.5337 4.88214 27.0076 6.00736 25.8824L3.53249 23.4075C1.75089 25.1891 0.75 27.6054 0.75 30.125H4.25ZM6.00736 25.8824C7.13258 24.7571 8.6587 24.125 10.25 24.125L10.25 20.625C7.73044 20.625 5.31408 21.6259 3.53249 23.4075L6.00736 25.8824ZM10.25 24.125H25.75V20.625H10.25V24.125ZM25.75 24.125C27.3413 24.125 28.8674 24.7571 29.9926 25.8824L32.4675 23.4075C30.6859 21.6259 28.2696 20.625 25.75 20.625L25.75 24.125ZM29.9926 25.8824C31.1179 27.0076 31.75 28.5337 31.75 30.125H35.25C35.25 27.6054 34.2491 25.1891 32.4675 23.4075L29.9926 25.8824ZM31.75 30.125C31.75 30.6886 31.5261 31.2291 31.1276 31.6276L33.6025 34.1025C34.6574 33.0476 35.25 31.6168 35.25 30.125H31.75ZM31.1276 31.6276C30.7291 32.0261 30.1886 32.25 29.625 32.25V35.75C31.1168 35.75 32.5476 35.1574 33.6025 34.1025L31.1276 31.6276ZM29.625 32.25H6.375V35.75H29.625V32.25ZM6.375 32.25C5.81142 32.25 5.27091 32.0261 4.8724 31.6276L2.39752 34.1025C3.45242 35.1574 4.88316 35.75 6.375 35.75V32.25ZM4.8724 31.6276C4.47388 31.2291 4.25 30.6886 4.25 30.125L0.75 30.125C0.75 31.6168 1.34263 33.0476 2.39752 34.1025L4.8724 31.6276ZM22.0625 8.8125C22.0625 11.0562 20.2437 12.875 18 12.875V16.375C22.1767 16.375 25.5625 12.9892 25.5625 8.8125H22.0625ZM18 12.875C15.7563 12.875 13.9375 11.0562 13.9375 8.8125H10.4375C10.4375 12.9892 13.8233 16.375 18 16.375V12.875ZM13.9375 8.8125C13.9375 6.56884 15.7563 4.75 18 4.75V1.25C13.8233 1.25 10.4375 4.63585 10.4375 8.8125H13.9375ZM18 4.75C20.2437 4.75 22.0625 6.56884 22.0625 8.8125H25.5625C25.5625 4.63585 22.1767 1.25 18 1.25V4.75Z" />
</svg>
